<svg class="lds-spinner" width="200px"  height="200px"  xmlns="http://www.w3.org/2000/svg" xmlns:xlink="http://www.w3.org/1999/xlink" viewBox="0 0 100 100" preserveAspectRatio="xMidYMid" style="background: none;"><g transform="rotate(0 50 50)">
  <rect x="48.5" y="14" rx="3.88" ry="1.12" width="3" height="12" fill="#262625">
    <animate attributeName="opacity" values="1;0" keyTimes="0;1" dur="0.8s" begin="-0.75s" repeatCount="indefinite"></animate>
  </rect>
</g><g transform="rotate(22.5 50 50)">
  <rect x="48.5" y="14" rx="3.88" ry="1.12" width="3" height="12" fill="#262625">
    <animate attributeName="opacity" values="1;0" keyTimes="0;1" dur="0.8s" begin="-0.7000000000000001s" repeatCount="indefinite"></animate>
  </rect>
</g><g transform="rotate(45 50 50)">
  <rect x="48.5" y="14" rx="3.88" ry="1.12" width="3" height="12" fill="#262625">
    <animate attributeName="opacity" values="1;0" keyTimes="0;1" dur="0.8s" begin="-0.65s" repeatCount="indefinite"></animate>
  </rect>
</g><g transform="rotate(67.5 50 50)">
  <rect x="48.5" y="14" rx="3.88" ry="1.12" width="3" height="12" fill="#262625">
    <animate attributeName="opacity" values="1;0" keyTimes="0;1" dur="0.8s" begin="-0.6000000000000001s" repeatCount="indefinite"></animate>
  </rect>
</g><g transform="rotate(90 50 50)">
  <rect x="48.5" y="14" rx="3.88" ry="1.12" width="3" height="12" fill="#262625">
    <animate attributeName="opacity" values="1;0" keyTimes="0;1" dur="0.8s" begin="-0.55s" repeatCount="indefinite"></animate>
  </rect>
</g><g transform="rotate(112.5 50 50)">
  <rect x="48.5" y="14" rx="3.88" ry="1.12" width="3" height="12" fill="#262625">
    <animate attributeName="opacity" values="1;0" keyTimes="0;1" dur="0.8s" begin="-0.5s" repeatCount="indefinite"></animate>
  </rect>
</g><g transform="rotate(135 50 50)">
  <rect x="48.5" y="14" rx="3.88" ry="1.12" width="3" height="12" fill="#262625">
    <animate attributeName="opacity" values="1;0" keyTimes="0;1" dur="0.8s" begin="-0.45s" repeatCount="indefinite"></animate>
  </rect>
</g><g transform="rotate(157.5 50 50)">
  <rect x="48.5" y="14" rx="3.88" ry="1.12" width="3" height="12" fill="#262625">
    <animate attributeName="opacity" values="1;0" keyTimes="0;1" dur="0.8s" begin="-0.4s" repeatCount="indefinite"></animate>
  </rect>
</g><g transform="rotate(180 50 50)">
  <rect x="48.5" y="14" rx="3.88" ry="1.12" width="3" height="12" fill="#262625">
    <animate attributeName="opacity" values="1;0" keyTimes="0;1" dur="0.8s" begin="-0.35000000000000003s" repeatCount="indefinite"></animate>
  </rect>
</g><g transform="rotate(202.5 50 50)">
  <rect x="48.5" y="14" rx="3.88" ry="1.12" width="3" height="12" fill="#262625">
    <animate attributeName="opacity" values="1;0" keyTimes="0;1" dur="0.8s" begin="-0.30000000000000004s" repeatCount="indefinite"></animate>
  </rect>
</g><g transform="rotate(225 50 50)">
  <rect x="48.5" y="14" rx="3.88" ry="1.12" width="3" height="12" fill="#262625">
    <animate attributeName="opacity" values="1;0" keyTimes="0;1" dur="0.8s" begin="-0.25s" repeatCount="indefinite"></animate>
  </rect>
</g><g transform="rotate(247.5 50 50)">
  <rect x="48.5" y="14" rx="3.88" ry="1.12" width="3" height="12" fill="#262625">
    <animate attributeName="opacity" values="1;0" keyTimes="0;1" dur="0.8s" begin="-0.2s" repeatCount="indefinite"></animate>
  </rect>
</g><g transform="rotate(270 50 50)">
  <rect x="48.5" y="14" rx="3.88" ry="1.12" width="3" height="12" fill="#262625">
    <animate attributeName="opacity" values="1;0" keyTimes="0;1" dur="0.8s" begin="-0.15000000000000002s" repeatCount="indefinite"></animate>
  </rect>
</g><g transform="rotate(292.5 50 50)">
  <rect x="48.5" y="14" rx="3.88" ry="1.12" width="3" height="12" fill="#262625">
    <animate attributeName="opacity" values="1;0" keyTimes="0;1" dur="0.8s" begin="-0.1s" repeatCount="indefinite"></animate>
  </rect>
</g><g transform="rotate(315 50 50)">
  <rect x="48.5" y="14" rx="3.88" ry="1.12" width="3" height="12" fill="#262625">
    <animate attributeName="opacity" values="1;0" keyTimes="0;1" dur="0.8s" begin="-0.05s" repeatCount="indefinite"></animate>
  </rect>
</g><g transform="rotate(337.5 50 50)">
  <rect x="48.5" y="14" rx="3.88" ry="1.12" width="3" height="12" fill="#262625">
    <animate attributeName="opacity" values="1;0" keyTimes="0;1" dur="0.8s" begin="0s" repeatCount="indefinite"></animate>
  </rect>
</g></svg>